# xmcd
#
# Track frame offsets: 
#        183
#        12100
#        23278
#        34818
#        48785
#        60633
#        73550
#        87958
#        101758
#        115113
#        128043
#        140935
#        153385
#        165090
#        177190
#        189545
#        200055
#        216280
#        229175
#        242188
#
# Disc length: 3365 seconds
#
# Revision: 1
# Processed by: cddbd v1.5.2PL0 Copyright (c) Steve Scherf et al.
# Submitted via: ExactAudioCopy v1.0b3
#
DISCID=0c0d2314
DTITLE=Charles, Ray - See See Rider
DYEAR=1995
DGENRE=Blues
TTITLE0=See See Rider
TTITLE1=A Sentimental Blues
TTITLE2=She's On The Ball
TTITLE3=This Love Of Mine
TTITLE4=How Long Blues
TTITLE5=You Never Miss The Water (Until The Well's Gone Dry)
TTITLE6=Someday
TTITLE7=Baby, Let Me Hold Your Hand
TTITLE8=Baby, Won't You Please Come Home
TTITLE9=The Snow Is Falling
TTITLE10=Blues Before Sunrise
TTITLE11=Money Honey
TTITLE12=What Have I Done?
TTITLE13=Can't You See Darling?
TTITLE14=Going Down Slow (I've Had My Fun)
TTITLE15=Sitting On Top Of The World
TTITLE16=Let Me Hear You Call My Name
TTITLE17=Why Did You Go?
TTITLE18=Don't Put All Your Dreams In One Basket
TTITLE19=Ain't That Fine
EXTD=ID3G: 0
EXTT0=
EXTT1=
EXTT2=
EXTT3=
EXTT4=
EXTT5=
EXTT6=
EXTT7=
EXTT8=
EXTT9=
EXTT10=
EXTT11=
EXTT12=
EXTT13=
EXTT14=
EXTT15=
EXTT16=
EXTT17=
EXTT18=
EXTT19=
PLAYORDER=
